<?xml version="1.0" encoding="utf-8"?>
<svg width="1012px" height="506px" viewBox="0 0 1012 506" version="1.1" xmlns:xlink="http://www.w3.org/1999/xlink" xmlns="http://www.w3.org/2000/svg">
  <defs>
    <filter filterUnits="userSpaceOnUse" color-interpolation-filters="sRGB" id="filter_1">
      <feFlood flood-opacity="0" result="BackgroundImageFix" />
      <feColorMatrix in="SourceAlpha" type="matrix" values="0 0 0 0 0 0 0 0 0 0 0 0 0 0 0 0 0 0 127 0" />
      <feOffset dx="0" dy="2" />
      <feGaussianBlur stdDeviation="2" />
      <feColorMatrix type="matrix" values="0 0 0 0 0.39215687 0 0 0 0 0.39215687 0 0 0 0 0.39215687 0 0 0 0.49803922 0" />
      <feBlend mode="normal" in2="BackgroundImageFix" result="effect0_dropShadow" />
      <feBlend mode="normal" in="SourceGraphic" in2="effect0_dropShadow" result="shape" />
    </filter>
    <filter filterUnits="userSpaceOnUse" color-interpolation-filters="sRGB" id="filter_2">
      <feFlood flood-opacity="0" result="BackgroundImageFix" />
      <feColorMatrix in="SourceAlpha" type="matrix" values="0 0 0 0 0 0 0 0 0 0 0 0 0 0 0 0 0 0 127 0" />
      <feOffset dx="0" dy="2" />
      <feGaussianBlur stdDeviation="2" />
      <feColorMatrix type="matrix" values="0 0 0 0 0.39215687 0 0 0 0 0.39215687 0 0 0 0 0.39215687 0 0 0 0.8 0" />
      <feBlend mode="normal" in2="BackgroundImageFix" result="effect0_dropShadow" />
      <feBlend mode="normal" in="SourceGraphic" in2="effect0_dropShadow" result="shape" />
    </filter>
    <path d="M0 0L505 0L505 505L0 505L0 0Z" id="path_1" />
    <rect width="1012" height="506" id="artboard_1" />
    <clipPath id="clip_1">
      <use xlink:href="#artboard_1" clip-rule="evenodd" />
    </clipPath>
    <clipPath id="mask_1">
      <use xlink:href="#path_1" />
    </clipPath>
  </defs>
  <g id="Twitter-Post" clip-path="url(#clip_1)">
    <g id="Robot-arm-bro" transform="translate(329.99994 2.7298927E-05)">
      <path d="M0 0L505 0L505 505L0 505L0 0Z" id="Background" fill="#FFFFFF" fill-opacity="0" fill-rule="evenodd" stroke="none" />
      <g clip-path="url(#mask_1)">
        <g filter="url(#filter_1)">
          <g id="freepik--Floor--inject-35" transform="translate(30.188873 433.0375)">
            <path d="M0 0L20.6747 0L20.6747 1.01001L0 1.01001L0 0Z" id="Rectangle" fill="#263238" fill-rule="evenodd" stroke="none" />
            <path d="M31.8755 0L465.085 0L465.085 1.01001L31.8755 1.01001L31.8755 0Z" id="Rectangle" fill="#263238" fill-rule="evenodd" stroke="none" />
          </g>
        </g>
        <g filter="url(#filter_1)">
          <g id="freepik--robot-arm--inject-35" transform="translate(63.703125 130.64314)">
            <path d="M249.932 109.858L249.73 105.818L249.831 107.838L249.72 105.818C249.872 105.818 264.476 104.808 276.798 90.3448C289.352 75.5888 294.847 33.2597 294.847 32.8355L298.887 33.3506C298.654 35.1282 293.201 77.2856 279.858 92.9406C266.365 108.858 250.599 109.828 249.932 109.858L249.932 109.858Z" id="Shape" fill="#263238" fill-rule="evenodd" stroke="none" />
            <path d="M246.831 128.432C245.983 128.432 245.135 128.432 244.296 128.351L244.579 124.311C265.122 125.776 290.595 106.242 297.988 83.3254C305.381 60.4085 297.261 28.543 297.18 28.2198L301.089 27.2098C301.442 28.5531 309.623 60.4186 301.826 84.5778C294.089 108.586 268.87 128.432 246.831 128.432L246.831 128.432Z" id="Shape" fill="#263238" fill-rule="evenodd" stroke="none" />
            <path d="M249.72 121.311L248.387 117.494C286.312 104.364 273.405 43.4101 273.273 42.7536L277.212 41.885C279.415 53.0506 280.078 64.4654 279.182 75.8109C277.101 99.6369 266.91 115.352 249.72 121.311L249.72 121.311Z" id="Shape" fill="#263238" fill-rule="evenodd" stroke="none" />
            <path d="M52.6793 44.7737L33.257 64.0243L29.6411 77.4169C29.4308 78.2259 29.6923 79.0844 30.3179 79.6389L30.3179 79.6389C30.7817 80.044 31.3941 80.2364 32.0064 80.1692C32.6186 80.102 33.1747 79.7815 33.5398 79.2854L41.4683 68.4582L42.3065 77.942C42.4464 79.4187 43.6346 80.577 45.1143 80.6792L45.1143 80.6792C46.6482 80.7694 48.0068 79.6973 48.2756 78.1845L50.3966 65.812L83.5145 55.9746L52.6793 44.7737Z" id="Shape" fill="#263238" fill-rule="evenodd" stroke="none" />
            <path d="M45.3062 81.1943L45.084 81.1943C43.3503 81.0818 41.9571 79.7229 41.8015 77.9926L41.0844 69.852L33.9538 79.5884C33.5059 80.2017 32.8202 80.5977 32.0651 80.6792C31.1787 80.7754 30.3017 80.4289 29.7204 79.7527C29.1392 79.0766 28.9282 78.1576 29.1563 77.2957L32.7822 63.7617L52.5479 44.198L85.1204 56.0352L50.841 66.216L48.821 78.2754C48.5317 79.9832 47.0381 81.2236 45.3062 81.1943L45.3062 81.1943ZM41.8519 67.0543L42.8115 77.8613C42.9308 79.1075 43.952 80.0742 45.2029 80.1252C46.4538 80.1761 47.5502 79.2957 47.7705 78.0632L49.9521 65.3878L50.2551 65.2968L81.8984 55.8937L52.8004 45.3191L33.6912 64.2869L30.136 77.5482C29.9894 78.0889 30.1192 78.6671 30.4828 79.0933C30.8464 79.5195 31.3969 79.7388 31.954 79.6792C32.4283 79.6311 32.859 79.3808 33.1357 78.9924L41.8519 67.0543Z" id="Shape" fill="#263238" fill-rule="evenodd" stroke="none" />
            <path d="M126.063 19.0198L159.906 8.26445L167.649 32.6269L133.805 43.3823L126.063 19.0198Z" id="Rectangle" fill="#263238" fill-rule="evenodd" stroke="none" />
            <path d="M133.489 44.0061L125.409 18.6753L160.214 7.56529L168.294 32.8961L133.489 44.0061ZM126.702 19.3318L134.146 42.7335L167.021 32.2901L159.577 8.87827L126.702 19.3318Z" id="Shape" fill="#263238" fill-rule="evenodd" stroke="none" />
            <path d="M116.935 20.6549L73.2226 36.4311L91.6955 70.6801L126.399 47.2482L116.935 20.6549L116.935 20.6549Z" id="Polygon" fill="#5E7CFF" fill-rule="evenodd" stroke="none" />
            <path d="M91.5238 71.4073L72.4954 36.1583L117.238 19.9983L127.005 47.4299L91.5238 71.4073ZM73.9498 36.7037L91.8369 69.9428L125.743 47.0461L116.582 21.3012L73.9498 36.7037Z" id="Shape" fill="#263238" fill-rule="evenodd" stroke="none" />
            <path d="M117.325 22.7823L116.073 18.8454C115.728 17.7582 115.817 16.7082 116.342 15.6951C116.866 14.6821 117.672 14.0029 118.759 13.6574L124.631 11.7914C125.718 11.4459 126.768 11.5354 127.781 12.0598C128.794 12.5842 129.473 13.39 129.819 14.4772L139.188 43.9604C139.534 45.0476 139.444 46.0977 138.92 47.1107C138.396 48.1237 137.59 48.803 136.503 49.1485L130.631 51.0144C129.544 51.3599 128.494 51.2705 127.481 50.746C126.468 50.2216 125.789 49.4158 125.443 48.3287L117.325 22.7823Z" id="Rectangle" fill="#263238" fill-rule="evenodd" stroke="none" />
            <path d="M129.389 51.7022C127.371 51.6893 125.591 50.3814 124.975 48.4602L115.602 18.9782C114.83 16.5323 116.187 13.9238 118.632 13.1505L124.49 11.2921C126.936 10.5204 129.545 11.8767 130.318 14.3221L139.691 43.8041C140.064 44.9786 139.954 46.2536 139.386 47.3471C138.817 48.4406 137.837 49.2627 136.661 49.6317L130.803 51.5003C130.344 51.6369 129.867 51.705 129.389 51.7022L129.389 51.7022ZM125.884 12.08C125.514 12.0827 125.146 12.1406 124.793 12.2517L118.925 14.1202C118.007 14.41 117.243 15.0536 116.801 15.9085C116.36 16.7635 116.277 17.7592 116.572 18.6753L125.934 48.1269C126.228 49.0447 126.875 49.8079 127.732 50.2479C128.585 50.6962 129.584 50.78 130.5 50.4802L136.358 48.6218C138.265 48.0133 139.322 45.9768 138.721 44.0667L129.348 14.5848C128.858 13.0875 127.459 12.0762 125.884 12.08L125.884 12.08Z" id="Shape" fill="#263238" fill-rule="evenodd" stroke="none" />
            <path d="M91.6955 70.6802C91.6955 70.6802 87.6555 61.873 96.3819 56.9442C105.108 52.0154 110.017 58.3178 110.017 58.3178L106.098 60.9236L91.6955 70.6802Z" id="Shape" fill="#263238" fill-rule="evenodd" stroke="none" />
            <path d="M91.4834 71.4276L91.241 70.8822C91.241 70.7913 87.201 61.6003 96.1294 56.4998C105.058 51.3993 110.32 57.9441 110.37 58.0148L110.704 58.439L106.34 61.3478L91.4834 71.4276ZM102.795 55.5605C100.615 55.616 98.4868 56.2429 96.6243 57.3785C89.5543 61.4185 91.241 67.933 91.9379 69.9025L109.209 58.2269C107.515 56.5147 105.204 55.5541 102.795 55.5605L102.795 55.5605Z" id="Shape" fill="#263238" fill-rule="evenodd" stroke="none" />
            <path d="M91.6955 70.6802C91.6955 70.6802 92.0894 61.3781 106.058 60.9236L111.108 87.7997L97.1394 89.1531L91.6955 70.6802Z" id="Shape" fill="#5E7CFF" fill-rule="evenodd" stroke="none" />
            <path d="M96.7353 89.6984L91.1904 70.7408L91.1904 70.6599C91.1904 70.5589 91.7762 60.8831 106.048 60.4185L106.482 60.4185L111.673 88.2642L96.7353 89.6984ZM92.2105 70.6195L97.4726 88.6076L110.481 87.3451L105.644 61.4487C93.2811 62.0244 92.2812 69.7004 92.2105 70.6195L92.2105 70.6195Z" id="Shape" fill="#263238" fill-rule="evenodd" stroke="none" />
            <path d="M97.1091 89.153L89.6452 102.202C88.7351 103.794 89.0498 105.803 90.4027 107.04L90.4027 107.04C91.2034 107.777 92.2753 108.148 93.3603 108.061C94.4453 107.975 95.4452 107.44 96.1193 106.586L111.077 87.7996L97.1091 89.153Z" id="Shape" fill="#5E7CFF" fill-rule="evenodd" stroke="none" />
            <path d="M93.0591 108.575C91.4787 108.579 90.0162 107.74 89.2225 106.373C88.4288 105.007 88.4244 103.32 89.211 101.95L96.7961 88.6784L112.209 87.1835L96.5133 106.909C95.7435 107.865 94.6155 108.463 93.3923 108.565L93.0591 108.575ZM97.4121 89.6278L90.0896 102.455C89.2066 104.004 89.6646 105.972 91.1408 106.972C92.6171 107.972 94.6143 107.667 95.7254 106.273L109.936 88.4158L97.4121 89.6278Z" id="Shape" fill="#263238" fill-rule="evenodd" stroke="none" />
            <path d="M95.5098 89.8728L95.4871 89.6976C95.4178 89.1638 95.5473 88.6836 95.8757 88.2571C96.2042 87.8307 96.6353 87.5828 97.1691 87.5134L110.55 85.7755C111.084 85.7062 111.564 85.8357 111.991 86.1642C112.417 86.4926 112.665 86.9237 112.734 87.4575L112.78 87.8081C112.849 88.3419 112.72 88.822 112.391 89.2485C112.063 89.675 111.632 89.9229 111.098 89.9922L97.7168 91.7301C97.183 91.7994 96.7028 91.6699 96.2763 91.3415C95.8499 91.013 95.602 90.5819 95.5326 90.0481L95.5098 89.8728Z" id="Rectangle" fill="#263238" fill-rule="evenodd" stroke="none" />
            <path d="M97.4626 92.2638C96.2299 92.2593 95.1902 91.3446 95.0285 90.1226L95.0285 89.7691C94.8557 88.4248 95.8052 87.1949 97.1495 87.0219L110.532 85.2847C111.178 85.1989 111.832 85.3747 112.347 85.7729C112.863 86.1712 113.199 86.759 113.279 87.4057L113.279 87.7491C113.447 89.0939 112.501 90.3232 111.158 90.5064L97.7757 92.2436L97.4626 92.2638ZM110.795 86.2745L110.613 86.2745L97.2303 88.0425C96.4408 88.1492 95.8824 88.8824 95.9779 89.6871L96.0284 90.0469C96.0761 90.4335 96.2738 90.7846 96.5773 91.022C96.8808 91.2595 97.265 91.3636 97.6444 91.3112L111.027 89.5946C111.407 89.5472 111.752 89.3474 111.986 89.0395C112.225 88.7316 112.33 88.3385 112.279 87.95L112.229 87.6005C112.156 86.8493 111.536 86.2762 110.795 86.2745L110.795 86.2745Z" id="Shape" fill="#263238" fill-rule="evenodd" stroke="none" />
            <path d="M73.2226 36.431L41.9833 36.1179L42.7408 48.652L84.5346 57.7723L73.2226 36.431L73.2226 36.431Z" id="Polygon" fill="#5E7CFF" fill-rule="evenodd" stroke="none" />
            <path d="M85.4941 58.4996L42.2661 49.0662L41.448 35.6029L73.5256 35.9261L85.4941 58.4996ZM43.2257 48.238L83.5752 57.0452L72.9197 36.9361L42.5187 36.623L43.2257 48.238Z" id="Shape" fill="#263238" fill-rule="evenodd" stroke="none" />
            <path d="M41.9833 36.1179L19.5714 36.8754L20.7127 48.652L42.7408 48.652L41.9833 36.1179L41.9833 36.1179Z" id="Polygon" fill="#5E7CFF" fill-rule="evenodd" stroke="none" />
            <path d="M43.2762 49.1368L20.2482 49.1368L19.016 36.3906L42.4581 35.5927L43.2762 49.1368ZM21.137 48.1268L42.1753 48.1268L41.4784 36.6128L20.127 37.3602L21.137 48.1268Z" id="Shape" fill="#263238" fill-rule="evenodd" stroke="none" />
            <path d="M19.5714 36.8754L1.76511 50.9144C0.612926 51.8316 0.201871 53.3977 0.755106 54.7625L0.755111 54.7625C1.10141 55.6327 1.79884 56.3163 2.67575 56.6451C3.55266 56.974 4.52763 56.9175 5.36071 56.4896L20.7329 48.652L19.5714 36.8754Z" id="Shape" fill="#5E7CFF" fill-rule="evenodd" stroke="none" />
            <path d="M3.82552 57.3583C3.36688 57.3582 2.91196 57.2761 2.48222 57.1159C1.47167 56.7419 0.667587 55.9561 0.270315 54.9545C-0.352983 53.3774 0.126523 51.5783 1.45202 50.5206L19.9855 35.9059L21.248 48.945L5.57281 56.9442C5.03228 57.221 4.43281 57.3631 3.82552 57.3583L3.82552 57.3583ZM19.117 37.8451L2.07826 51.3084C1.09855 52.0881 0.745618 53.4178 1.20965 54.5808C1.489 55.3338 2.08277 55.9275 2.83576 56.2069C3.57743 56.4885 4.40395 56.4407 5.10826 56.0756L20.1775 48.3895L19.117 37.8451Z" id="Shape" fill="#263238" fill-rule="evenodd" stroke="none" />
            <path d="M19.2987 48.3592L17.8342 37.6431C17.7025 36.6619 18.3888 35.7589 19.3694 35.6231L19.3694 35.6231C19.8411 35.557 20.3197 35.682 20.699 35.9702C21.0782 36.2584 21.3267 36.6861 21.3894 37.1583L22.8539 47.8744C22.9856 48.8555 22.2993 49.7586 21.3187 49.8944L21.3187 49.8944C20.847 49.9604 20.3684 49.8354 19.9891 49.5472C19.6099 49.259 19.3614 48.8313 19.2987 48.3592L19.2987 48.3592Z" id="Shape" fill="#263238" fill-rule="evenodd" stroke="none" />
            <path d="M21.0662 50.4196C19.9103 50.4087 18.94 49.5462 18.7936 48.3996L17.3292 37.6835C17.2044 36.7607 17.6476 35.8537 18.4522 35.3851C19.2569 34.9164 20.2645 34.9785 21.0055 35.5423C21.4929 35.9078 21.8131 36.4536 21.8944 37.0573L23.3588 47.7734C23.4387 48.3861 23.2701 49.0053 22.8907 49.4929C22.5112 49.9805 21.9524 50.296 21.3388 50.3691L21.0662 50.4196ZM19.9319 36.1079L19.7174 36.1079C18.837 36.2071 18.2223 36.8572 18.3421 37.5623L20.1591 48.2785C20.2177 48.6206 20.4449 48.9297 20.7899 49.1369C21.1302 49.3398 21.5548 49.4303 21.976 49.3895C22.8578 49.2901 23.4762 48.6421 23.364 47.935L21.5344 37.2189C21.4758 36.8768 21.2486 36.5677 20.9035 36.3605C20.6232 36.193 20.2817 36.1043 19.9319 36.1079L19.9319 36.1079Z" id="Shape" fill="#263238" fill-rule="evenodd" stroke="none" />
            <path d="M41.3739 47.228L41.236 36.421C41.2286 35.9442 41.4803 35.4848 41.9357 35.1438C42.3911 34.8029 43.0129 34.6083 43.6643 34.603L43.6643 34.603C44.3156 34.5976 44.9432 34.7819 45.409 35.1152C45.8748 35.4486 46.1405 35.9038 46.1478 36.3806L46.2858 47.1977C46.2935 48.1867 45.2085 48.9945 43.8575 49.0056L43.8575 49.0056C43.205 49.0137 42.5753 48.8303 42.1087 48.4963C41.6421 48.1624 41.3775 47.7057 41.3739 47.228L41.3739 47.228Z" id="Shape" fill="#263238" fill-rule="evenodd" stroke="none" />
            <path d="M43.2999 49.5106C41.9503 49.5053 40.8527 48.4958 40.8291 47.2381L40.7208 36.421C40.7087 35.1531 41.7987 34.1146 43.159 34.098C43.8124 34.1007 44.4402 34.3354 44.9145 34.7545C45.3861 35.1821 45.6552 35.7674 45.6622 36.3806L45.7706 47.1876C45.7826 48.4555 44.6927 49.4939 43.3324 49.5106L43.2999 49.5106ZM41.904 47.228C41.9059 47.9413 43.0016 48.519 44.3525 48.519C45.7034 48.519 46.7991 47.9413 46.8009 47.228L46.6096 36.421C46.5994 36.0777 46.331 35.7507 45.8636 35.512C45.4124 35.2732 44.8 35.1388 44.1612 35.1383L44.1612 35.1383C42.8164 35.1494 41.7403 35.7311 41.751 36.4412L41.904 47.228Z" id="Shape" fill="#263238" fill-rule="evenodd" stroke="none" />
            <path d="M84.5346 57.7723L81.7672 33.6333L73.2226 36.431L84.5346 57.7723L84.5346 57.7723Z" id="Polygon" fill="#263238" fill-rule="evenodd" stroke="none" />
            <path d="M85.3426 60.3681L72.4954 36.1281L82.2015 32.9466L85.3426 60.3681ZM73.9498 36.724L83.7569 55.1969L81.3733 34.3303L73.9498 36.724Z" id="Shape" fill="#263238" fill-rule="evenodd" stroke="none" />
            <path d="M73.2226 36.431L36.7717 44.2585L41.5389 57.6006L84.5345 57.7723L73.2226 36.431L73.2226 36.431Z" id="Polygon" fill="#5E7CFF" fill-rule="evenodd" stroke="none" />
            <path d="M85.3729 58.2774L41.1753 58.1057L36.1253 43.8849L73.4953 35.8049L85.3729 58.2774ZM41.9429 57.0957L83.7468 57.2674L72.96 37.0169L37.4383 44.6424L41.9429 57.0957Z" id="Shape" fill="#263238" fill-rule="evenodd" stroke="none" />
            <path d="M36.7718 44.2585L21.2885 62.1254L27.4293 68.4581L41.5389 57.6006L36.7718 44.2585L36.7718 44.2585Z" id="Polygon" fill="#5E7CFF" fill-rule="evenodd" stroke="none" />
            <path d="M27.3787 69.1248L20.6016 62.1457L36.9535 43.2688L42.1348 57.7724L27.3787 69.1248ZM21.9753 62.1053L27.4797 67.7815L40.9329 57.4189L36.5899 45.2383L21.9753 62.1053Z" id="Shape" fill="#263238" fill-rule="evenodd" stroke="none" />
            <path d="M21.2884 62.1254L13.4609 77.1441C12.8838 78.2289 13.194 79.5731 14.1881 80.2953L14.1881 80.2953C15.232 81.0651 16.6925 80.9024 17.5413 79.9216L27.4292 68.4581L21.2884 62.1254Z" id="Shape" fill="#5E7CFF" fill-rule="evenodd" stroke="none" />
            <path d="M15.6526 81.2851C14.6264 81.2447 13.6904 80.6872 13.1662 79.804C12.6419 78.9207 12.6008 77.8321 13.057 76.9118L21.137 61.2568L28.0958 68.4278L17.9251 80.2448C17.3526 80.9024 16.5245 81.2815 15.6526 81.2851L15.6526 81.2851ZM21.4096 62.9738L13.9053 77.4168C13.4694 78.2868 13.7156 79.3439 14.4911 79.9317C15.3303 80.5271 16.4828 80.3966 17.1676 79.6287L26.7424 68.5187L21.4096 62.9738Z" id="Shape" fill="#263238" fill-rule="evenodd" stroke="none" />
            <path d="M27.1969 70.7407L18.8038 63.9131C18.0386 63.2846 17.9257 62.1557 18.5513 61.3881L18.5513 61.3881C19.1768 60.6198 20.3061 60.5023 21.0763 61.1255L29.4593 67.9531C30.2276 68.5786 30.3451 69.7079 29.7219 70.4781L29.7219 70.4781C29.423 70.8495 28.9882 71.0861 28.5141 71.1354C28.0399 71.1848 27.5658 71.0427 27.1969 70.7407L27.1969 70.7407Z" id="Shape" fill="#263238" fill-rule="evenodd" stroke="none" />
            <path d="M28.3281 71.6498C27.8018 71.649 27.2918 71.4671 26.8838 71.1347L18.5008 64.2869C18.0262 63.9014 17.7244 63.3431 17.6619 62.7349C17.5994 62.1268 17.7813 61.5187 18.1675 61.0448C18.976 60.065 20.4235 59.9207 21.4096 60.7216L29.7926 67.5492C30.4896 68.1428 30.7688 69.0928 30.5037 69.9691C30.2386 70.8454 29.4796 71.4815 28.5705 71.5892L28.3281 71.6498ZM27.5201 70.3469C28.0742 70.7926 28.8832 70.7117 29.3381 70.1652C29.7894 69.6128 29.7081 68.7992 29.1563 68.3472L20.7632 61.5196C20.5027 61.2994 20.1626 61.197 19.8239 61.2368C19.4802 61.2741 19.1648 61.4445 18.9452 61.7115C18.7301 61.9763 18.6295 62.316 18.6655 62.6553C18.7015 62.9945 18.8712 63.3055 19.1371 63.5193L27.5201 70.3469Z" id="Shape" fill="#263238" fill-rule="evenodd" stroke="none" />
            <path d="M39.8421 57.8531L35.6102 44.6626C35.4528 44.2126 35.4816 43.7184 35.6902 43.2898C35.8988 42.8612 36.27 42.5336 36.7212 42.38L36.7212 42.38C37.6609 42.0574 38.6848 42.5536 39.0139 43.491L43.2458 56.6715C43.4032 57.1214 43.3744 57.6156 43.1658 58.0442C42.9572 58.4728 42.5861 58.8004 42.1348 58.9541L42.1348 58.9541C41.6848 59.1123 41.1904 59.0852 40.7604 58.8787C40.3304 58.6722 40 58.3033 39.8421 57.8531L39.8421 57.8531Z" id="Shape" fill="#263238" fill-rule="evenodd" stroke="none" />
            <path d="M41.5389 59.56C41.1886 59.564 40.8423 59.4844 40.5289 59.3277C39.9758 59.068 39.5526 58.5937 39.3573 58.0147L39.3573 58.0147L35.1254 44.8241C34.717 43.6277 35.3541 42.3264 36.5495 41.9153C37.7487 41.4987 39.0589 42.1312 39.4785 43.3293L43.7104 56.53C44.119 57.7089 43.5144 58.9987 42.3469 59.4388C42.0864 59.5246 41.8132 59.5656 41.5389 59.56L41.5389 59.56ZM40.327 57.6915C40.4359 58.0143 40.6736 58.2775 40.9835 58.4187C41.2973 58.5777 41.6629 58.5996 41.9935 58.4793C42.317 58.3692 42.5832 58.1345 42.733 57.8273C42.8828 57.5201 42.9038 57.1659 42.7914 56.8431L38.5595 43.6424C38.4455 43.3227 38.2094 43.0612 37.903 42.9152C37.5892 42.7563 37.2236 42.7344 36.893 42.8546C36.5687 42.967 36.3024 43.2036 36.1528 43.5124C36.0031 43.8212 35.9824 44.1768 36.0951 44.5009L40.327 57.6915Z" id="Shape" fill="#263238" fill-rule="evenodd" stroke="none" />
            <path d="M258.84 10.2316L258.84 10.2316C246.847 7.81036 235.153 15.5401 232.681 27.5228L178.313 151.824L240.802 161.429L276.152 36.4007C278.578 24.3977 270.836 12.694 258.84 10.2316L258.84 10.2316Z" id="Shape" fill="#5E7CFF" fill-rule="evenodd" stroke="none" />
            <path d="M241.165 161.994L177.535 152.217L232.227 27.3713C233.851 19.4329 239.586 12.9638 247.273 10.4008C254.96 7.83778 263.43 9.57032 269.493 14.9458C275.556 20.3212 278.291 28.5229 276.667 36.4614L241.165 161.994ZM179.04 151.42L240.428 160.853L275.657 36.2594C278.008 24.5526 270.448 13.1494 258.749 10.7569L258.749 10.7569C253.117 9.60379 247.258 10.7366 242.461 13.9059C237.665 17.0752 234.325 22.021 233.176 27.6542L233.176 27.7552L179.04 151.42Z" id="Shape" fill="#263238" fill-rule="evenodd" stroke="none" />
            <path d="M227.571 116.12C225.783 116.124 224.106 115.259 223.073 113.801C222.04 112.342 221.781 110.472 222.379 108.787L242.206 52.5103C242.866 50.6574 244.465 49.2975 246.4 48.9429C248.334 48.5883 250.311 49.2929 251.586 50.7912C252.86 52.2895 253.239 54.354 252.578 56.2069L232.762 112.484C231.971 114.669 229.895 116.123 227.571 116.12L227.571 116.12Z" id="Shape" fill="#263238" fill-rule="evenodd" stroke="none" />
            <path d="M328.015 291.345L338.115 219.14C341.721 202.414 330.338 186.093 312.704 182.669L312.704 182.669C295.069 179.255 277.848 190.052 274.253 206.768L222.218 291.345L328.015 291.345Z" id="Shape" fill="#5E7CFF" fill-rule="evenodd" stroke="none" />
            <path d="M328.45 291.85L221.309 291.85L273.768 206.576C277.465 189.668 294.978 178.73 312.795 182.174C321.557 183.789 329.288 188.892 334.217 196.314C338.728 203.06 340.309 211.348 338.6 219.281L328.45 291.85ZM223.117 290.84L327.581 290.84L337.61 219.069C339.265 211.395 337.738 203.378 333.378 196.849C328.589 189.672 321.092 184.744 312.603 183.194C295.261 179.831 278.263 190.466 274.738 206.899L274.677 207.06L223.117 290.84Z" id="Shape" fill="#263238" fill-rule="evenodd" stroke="none" />
            <path d="M186.464 148.854L186.464 148.854C182.775 155.279 181.791 162.906 183.727 170.056C185.663 177.207 190.36 183.295 196.786 186.982L284.585 250.026L320.804 179.094L224.591 138.522C218.165 134.834 210.538 133.851 203.387 135.789C196.236 137.727 190.148 142.427 186.464 148.854L186.464 148.854Z" id="Shape" fill="#5E7CFF" fill-rule="evenodd" stroke="none" />
            <path d="M284.747 250.783L284.272 250.44L196.473 187.396C182.886 179.561 178.201 162.209 185.999 148.602L185.999 148.602C189.753 142.059 195.953 137.275 203.234 135.304C210.515 133.332 218.281 134.333 224.824 138.088L321.47 178.841L321.228 179.326L284.747 250.783ZM210.724 135.31C200.884 135.329 191.802 140.596 186.898 149.127L186.898 149.127C179.348 162.255 183.87 179.017 196.998 186.568L284.363 249.299L320.097 179.346L224.389 138.946C220.23 136.562 215.518 135.308 210.724 135.31L210.724 135.31Z" id="Shape" fill="#263238" fill-rule="evenodd" stroke="none" />
            <path d="M251.77 197.93C250.694 197.935 249.64 197.622 248.74 197.031L223.288 180.437C220.74 178.78 220.017 175.371 221.673 172.822C223.329 170.273 226.738 169.549 229.287 171.205L254.78 187.779C256.81 189.118 257.721 191.628 257.023 193.957C256.324 196.285 254.181 197.879 251.75 197.879L251.77 197.93Z" id="Shape" fill="#263238" fill-rule="evenodd" stroke="none" />
            <path d="M268.577 237.43C255.524 219.589 259.405 194.545 277.246 181.492C295.087 168.439 320.131 172.321 333.184 190.162C346.237 208.003 342.355 233.047 324.514 246.1C306.673 259.153 281.629 255.271 268.577 237.43Z" id="Circle" fill="#FFFFFF" fill-rule="evenodd" stroke="none" />
            <path d="M300.806 254.339C282.484 254.306 266.464 241.983 261.732 224.284C257 206.584 264.733 187.911 280.593 178.739C296.454 169.567 316.496 172.179 329.476 185.109C342.456 198.04 345.145 218.071 336.035 233.967C328.85 246.639 315.373 254.433 300.806 254.339L300.806 254.339ZM300.907 174.276C281.042 174.227 264.223 188.919 261.603 208.61C258.983 228.301 271.374 246.881 290.56 252.028C309.746 257.175 329.774 247.293 337.362 228.935C344.949 210.576 337.743 189.438 320.521 179.538C314.555 176.1 307.793 174.285 300.907 174.276L300.907 174.276Z" id="Shape" fill="#263238" fill-rule="evenodd" stroke="none" />
            <path d="M277.728 228.265C269.819 215.369 273.862 198.504 286.758 190.595C299.654 182.686 316.519 186.729 324.428 199.625C332.336 212.521 328.294 229.386 315.398 237.295C302.502 245.203 285.637 241.161 277.728 228.265Z" id="Circle" fill="#FFFFFF" fill-rule="evenodd" stroke="none" />
            <path d="M301.028 241.835C286.32 241.888 274.09 230.529 273.058 215.857C272.027 201.185 282.548 188.227 297.119 186.222C311.69 184.218 325.319 193.855 328.288 208.26C331.256 222.665 322.547 236.905 308.371 240.825C305.979 241.484 303.509 241.824 301.028 241.835L301.028 241.835ZM301.119 187.052C287.638 187.048 276.245 197.042 274.492 210.408C272.74 223.775 281.172 236.368 294.198 239.839C307.224 243.31 320.804 236.582 325.935 224.116C331.066 211.65 326.157 197.312 314.461 190.608C310.399 188.283 305.8 187.057 301.119 187.052L301.119 187.052Z" id="Shape" fill="#263238" fill-rule="evenodd" stroke="none" />
            <path d="M277.109 200.781L277.612 199.905L301.334 213.518L300.831 214.394L277.109 200.781Z" id="Rectangle" fill="#263238" fill-rule="evenodd" stroke="none" />
            <path d="M274.223 208.828L274.43 207.839L301.198 213.456L300.99 214.444L274.223 208.828Z" id="Rectangle" fill="#263238" fill-rule="evenodd" stroke="none" />
            <path d="M273.853 216.344L301.045 213.405L301.154 214.409L273.961 217.349L273.853 216.344Z" id="Rectangle" fill="#263238" fill-rule="evenodd" stroke="none" />
            <path d="M275.91 224.649L300.875 213.476L301.288 214.398L276.323 225.571L275.91 224.649Z" id="Rectangle" fill="#263238" fill-rule="evenodd" stroke="none" />
            <path d="M280.452 231.933L300.729 213.578L301.407 214.327L281.13 232.682L280.452 231.933Z" id="Rectangle" fill="#263238" fill-rule="evenodd" stroke="none" />
            <path d="M287.021 237.392L300.642 213.675L301.518 214.178L287.896 237.896L287.021 237.392Z" id="Rectangle" fill="#263238" fill-rule="evenodd" stroke="none" />
            <path d="M294.985 240.615L300.596 213.846L301.585 214.053L295.973 240.822L294.985 240.615Z" id="Rectangle" fill="#263238" fill-rule="evenodd" stroke="none" />
            <path d="M300.005 211.48L301.005 211.369L304.014 238.446L303.014 238.557L300.005 211.48Z" id="Rectangle" fill="#263238" fill-rule="evenodd" stroke="none" />
            <path d="M300.613 214.149L301.535 213.736L312.725 238.693L311.803 239.106L300.613 214.149Z" id="Rectangle" fill="#263238" fill-rule="evenodd" stroke="none" />
            <path d="M300.699 214.29L301.447 213.613L319.802 233.89L319.053 234.568L300.699 214.29Z" id="Rectangle" fill="#263238" fill-rule="evenodd" stroke="none" />
            <path d="M300.827 214.381L301.33 213.505L325.052 227.119L324.549 227.995L300.827 214.381Z" id="Rectangle" fill="#263238" fill-rule="evenodd" stroke="none" />
            <path d="M300.981 214.43L301.188 213.441L327.956 219.058L327.749 220.046L300.981 214.43Z" id="Rectangle" fill="#263238" fill-rule="evenodd" stroke="none" />
            <path d="M301.034 213.409L328.227 210.469L328.335 211.473L301.143 214.413L301.034 213.409Z" id="Rectangle" fill="#263238" fill-rule="evenodd" stroke="none" />
            <path d="M300.866 213.461L325.831 202.288L326.243 203.21L301.278 214.383L300.866 213.461Z" id="Rectangle" fill="#263238" fill-rule="evenodd" stroke="none" />
            <path d="M300.736 213.575L321.014 195.22L321.692 195.969L301.414 214.324L300.736 213.575Z" id="Rectangle" fill="#263238" fill-rule="evenodd" stroke="none" />
            <path d="M300.638 213.675L314.26 189.957L315.135 190.46L301.514 214.178L300.638 213.675Z" id="Rectangle" fill="#263238" fill-rule="evenodd" stroke="none" />
            <path d="M300.605 213.851L306.217 187.082L307.205 187.289L301.593 214.058L300.605 213.851Z" id="Rectangle" fill="#263238" fill-rule="evenodd" stroke="none" />
            <path d="M297.634 186.808L298.638 186.7L301.568 213.893L300.564 214.001L297.634 186.808Z" id="Rectangle" fill="#263238" fill-rule="evenodd" stroke="none" />
            <path d="M300.614 214.13L289.423 189.183L290.342 188.769L301.533 213.716L300.614 214.13L300.614 214.13Z" id="Polygon" fill="#263238" fill-rule="evenodd" stroke="none" />
            <path d="M282.341 194.016L283.09 193.338L301.444 213.616L300.695 214.294L282.341 194.016Z" id="Rectangle" fill="#263238" fill-rule="evenodd" stroke="none" />
            <path d="M296.908 228.335C288.9 226.133 284.192 217.856 286.393 209.847C288.595 201.839 296.872 197.131 304.88 199.333C312.889 201.534 317.597 209.811 315.395 217.82C313.194 225.828 304.917 230.536 296.908 228.335Z" id="Circle" fill="#263238" fill-rule="evenodd" stroke="none" />
            <path d="M300.907 229.361C292.696 229.386 285.875 223.037 285.312 214.845C284.749 206.654 290.638 199.431 298.775 198.333C306.911 197.234 314.505 202.637 316.134 210.684C317.764 218.732 312.87 226.663 304.947 228.816C303.63 229.173 302.272 229.356 300.907 229.361L300.907 229.361ZM300.907 199.284C293.602 199.27 287.42 204.677 286.462 211.919C285.503 219.16 290.065 225.99 297.122 227.877C304.178 229.765 311.54 226.126 314.325 219.373C317.111 212.619 314.454 204.848 308.118 201.213L308.118 201.213C305.925 199.95 303.438 199.285 300.907 199.284L300.907 199.284Z" id="Shape" fill="#263238" fill-rule="evenodd" stroke="none" />
            <path d="M203.636 193.084C186.633 190.679 174.798 174.946 177.203 157.943C179.607 140.94 195.34 129.105 212.343 131.51C229.347 133.914 241.181 149.647 238.777 166.65C236.372 183.654 220.639 195.488 203.636 193.084Z" id="Circle" fill="#FFFFFF" fill-rule="evenodd" stroke="none" />
            <path d="M207.31 192.9C190.639 192.901 176.822 179.975 175.715 163.34C174.608 146.705 186.589 132.061 203.114 129.852C219.638 127.644 235.045 138.627 238.345 154.969C241.646 171.31 231.709 187.412 215.623 191.789C212.914 192.529 210.118 192.903 207.31 192.9L207.31 192.9ZM207.411 130.694C204.682 130.693 201.966 131.053 199.331 131.765C185.234 135.562 175.782 148.787 176.754 163.354C177.727 177.921 188.854 189.773 203.331 191.661C217.808 193.549 231.603 184.949 236.28 171.119C240.957 157.289 235.213 142.081 222.561 134.795L222.561 134.795C217.958 132.125 212.733 130.711 207.411 130.694L207.411 130.694Z" id="Shape" fill="#263238" fill-rule="evenodd" stroke="none" />
            <path d="M205.303 181.06C194.39 179.92 186.467 170.15 187.606 159.237C188.745 148.325 198.516 140.402 209.428 141.541C220.341 142.68 228.264 152.45 227.125 163.363C225.985 174.276 216.215 182.199 205.303 181.06Z" id="Circle" fill="#FFFFFF" fill-rule="evenodd" stroke="none" />
            <path d="M207.33 181.679C198.775 181.663 191.14 176.305 188.216 168.265C185.291 160.226 187.698 151.215 194.243 145.705C200.788 140.195 210.078 139.359 217.501 143.612L217.501 143.612C224.664 147.711 228.649 155.724 227.593 163.909C226.538 172.094 220.652 178.834 212.683 180.982C210.937 181.448 209.138 181.682 207.33 181.679L207.33 181.679ZM207.391 141.926C197.667 141.912 189.441 149.114 188.17 158.755C186.898 168.395 192.974 177.484 202.369 179.993C211.764 182.503 221.562 177.654 225.267 168.663C228.971 159.672 225.432 149.328 216.996 144.491L216.996 144.491C214.074 142.81 210.762 141.926 207.391 141.926L207.391 141.926Z" id="Shape" fill="#263238" fill-rule="evenodd" stroke="none" />
            <path d="M189.904 151.865L190.407 150.989L207.621 160.868L207.118 161.744L189.904 151.865Z" id="Rectangle" fill="#263238" fill-rule="evenodd" stroke="none" />
            <path d="M187.844 157.729L188.051 156.74L207.475 160.816L207.267 161.804L187.844 157.729Z" id="Rectangle" fill="#263238" fill-rule="evenodd" stroke="none" />
            <path d="M187.59 162.906L207.311 160.774L207.42 161.778L187.698 163.91L187.59 162.906Z" id="Rectangle" fill="#263238" fill-rule="evenodd" stroke="none" />
            <path d="M189.037 168.953L207.146 160.83L207.559 161.752L189.451 169.874L189.037 168.953Z" id="Rectangle" fill="#263238" fill-rule="evenodd" stroke="none" />
            <path d="M192.3 174.24L207.015 160.938L207.693 161.688L192.977 174.989L192.3 174.24Z" id="Rectangle" fill="#263238" fill-rule="evenodd" stroke="none" />
            <path d="M197.043 178.239L206.927 161.029L207.803 161.532L197.918 178.742L197.043 178.239Z" id="Rectangle" fill="#263238" fill-rule="evenodd" stroke="none" />
            <path d="M202.809 180.623L206.881 161.199L207.869 161.406L203.797 180.83L202.809 180.623Z" id="Rectangle" fill="#263238" fill-rule="evenodd" stroke="none" />
            <path d="M206.848 161.364L207.852 161.256L209.978 180.988L208.974 181.096L206.848 161.364Z" id="Rectangle" fill="#263238" fill-rule="evenodd" stroke="none" />
            <path d="M206.891 161.506L207.812 161.092L215.932 179.202L215.01 179.615L206.891 161.506Z" id="Rectangle" fill="#263238" fill-rule="evenodd" stroke="none" />
            <path d="M206.979 161.639L207.728 160.962L221.046 175.676L220.297 176.354L206.979 161.639Z" id="Rectangle" fill="#263238" fill-rule="evenodd" stroke="none" />
            <path d="M207.109 161.742L207.611 160.866L224.825 170.744L224.322 171.62L207.109 161.742Z" id="Rectangle" fill="#263238" fill-rule="evenodd" stroke="none" />
            <path d="M207.269 161.799L207.476 160.81L226.9 164.886L226.692 165.874L207.269 161.799Z" id="Rectangle" fill="#263238" fill-rule="evenodd" stroke="none" />
            <path d="M207.315 160.778L227.036 158.646L227.145 159.65L207.424 161.782L207.315 160.778Z" id="Rectangle" fill="#263238" fill-rule="evenodd" stroke="none" />
            <path d="M207.146 160.838L225.254 152.716L225.667 153.637L207.559 161.76L207.146 160.838Z" id="Rectangle" fill="#263238" fill-rule="evenodd" stroke="none" />
            <path d="M207.016 160.92L221.732 147.619L222.409 148.368L207.694 161.669L207.016 160.92Z" id="Rectangle" fill="#263238" fill-rule="evenodd" stroke="none" />
            <path d="M206.91 161.04L216.789 143.839L217.665 144.342L207.786 161.543L206.91 161.04Z" id="Rectangle" fill="#263238" fill-rule="evenodd" stroke="none" />
            <path d="M206.875 161.211L210.947 141.787L211.936 141.994L207.864 161.418L206.875 161.211Z" id="Rectangle" fill="#263238" fill-rule="evenodd" stroke="none" />
            <path d="M204.727 141.636L205.731 141.528L207.856 161.25L206.852 161.358L204.727 141.636Z" id="Rectangle" fill="#263238" fill-rule="evenodd" stroke="none" />
            <path d="M198.773 143.414L199.694 143.001L207.81 161.101L206.888 161.515L198.773 143.414Z" id="Rectangle" fill="#263238" fill-rule="evenodd" stroke="none" />
            <path d="M193.675 146.934L194.424 146.256L207.735 160.963L206.987 161.641L193.675 146.934Z" id="Rectangle" fill="#263238" fill-rule="evenodd" stroke="none" />
            <path d="M197.443 167.424C194.044 161.944 195.73 154.746 201.21 151.347C206.69 147.948 213.887 149.635 217.286 155.115C220.685 160.595 218.998 167.792 213.519 171.191C208.039 174.59 200.841 172.903 197.443 167.424Z" id="Circle" fill="#263238" fill-rule="evenodd" stroke="none" />
            <path d="M207.34 173.468C202.223 173.469 197.651 170.272 195.896 165.465C194.141 160.658 195.577 155.267 199.491 151.971C203.405 148.674 208.962 148.176 213.4 150.723L213.4 150.723C218.187 153.469 220.528 159.091 219.108 164.423C217.687 169.756 212.859 173.467 207.34 173.468L207.34 173.468ZM207.34 150.117C201.724 150.1 196.967 154.253 196.225 159.82C195.483 165.387 198.986 170.641 204.411 172.096C209.835 173.552 215.498 170.757 217.642 165.565C219.786 160.374 217.746 154.398 212.875 151.602C211.203 150.641 209.309 150.136 207.381 150.137L207.34 150.117Z" id="Shape" fill="#263238" fill-rule="evenodd" stroke="none" />
            <path d="M223.197 3.27275L222.46 10.7266L207.31 9.84786L207.744 3.12125L166.334 2.72736C160.946 2.28613 155.603 4.00377 151.482 7.50232C147.36 11.0009 144.797 15.9937 144.357 21.3821L144.357 21.3821C143.444 32.5954 151.789 42.4278 163.001 43.3496L203.775 49.0257L204.694 43.0769L219.612 44.6626L219.036 51.1468L297.422 62.0548L299.321 3.98986L223.197 3.27275Z" id="Shape" fill="#5E7CFF" fill-rule="evenodd" stroke="none" />
            <path d="M297.877 62.6305L218.461 51.5811L219.036 45.107L205.088 43.6324L204.169 49.5914L162.911 43.8445C151.422 42.8928 142.879 32.8094 143.828 21.3206C144.777 9.83181 154.858 1.28663 166.347 2.23271L208.28 2.62638L207.835 9.37317L222.026 10.2014L222.763 2.75768L299.806 3.49497L297.877 62.6305ZM219.551 50.7125L296.867 61.4791L298.725 4.49488L223.632 3.77778L222.895 11.2619L206.735 10.3226L207.169 3.62629L166.264 3.23238C159.113 2.51169 152.131 5.70693 148.002 11.5891C143.873 17.4713 143.241 25.1242 146.348 31.6043C149.456 38.0843 155.82 42.3821 162.991 42.8446L203.29 48.4501L204.199 42.5214L220.107 44.2081L219.551 50.7125Z" id="Shape" fill="#263238" fill-rule="evenodd" stroke="none" />
            <path d="M222.46 10.7265L215.431 10.3225L212.512 43.9151L219.551 44.6625L222.46 10.7265L222.46 10.7265Z" id="Polygon" fill="#263238" fill-rule="evenodd" stroke="none" />
            <path d="M220.006 45.2181L211.926 44.3595L214.956 9.78725L223.036 10.2619L220.006 45.2181ZM213.037 43.4607L219.097 44.1071L221.915 11.2013L215.855 10.8579L213.037 43.4607Z" id="Shape" fill="#263238" fill-rule="evenodd" stroke="none" />
            <path d="M210.35 43.5718L213.259 10.2519L207.28 9.84787L204.644 43.0769L210.35 43.5718L210.35 43.5718Z" id="Polygon" fill="#263238" fill-rule="evenodd" stroke="none" />
            <path d="M210.805 44.0869L204.098 43.5112L206.815 9.28227L213.805 9.75698L210.805 44.0869ZM205.179 42.5921L209.886 42.986L212.714 10.666L207.745 10.3327L205.179 42.5921Z" id="Shape" fill="#263238" fill-rule="evenodd" stroke="none" />
            <path d="M296.824 62.2544C280.698 61.1256 268.54 47.1376 269.669 31.0114C270.798 14.8852 284.786 2.7274 300.912 3.85622C317.038 4.98507 329.196 18.973 328.067 35.0993C326.938 51.2255 312.95 63.3833 296.824 62.2544Z" id="Circle" fill="#FFFFFF" fill-rule="evenodd" stroke="none" />
            <path d="M296.867 62.792C296.059 62.792 295.241 62.792 294.423 62.7011C278.25 61.4336 266.06 47.4642 266.996 31.2686C267.931 15.0731 281.648 2.5998 297.859 3.20262C314.07 3.80546 326.822 17.263 326.552 33.4833C326.282 49.7035 313.089 62.7291 296.867 62.792L296.867 62.792ZM296.867 4.39382C281.217 4.3693 268.421 16.8655 268.074 32.5119C267.728 48.1583 279.958 61.2087 295.594 61.877C311.23 62.5453 324.529 50.586 325.519 34.9671C326.509 19.3482 314.826 5.80575 299.23 4.49484C298.432 4.43421 297.644 4.3938 296.867 4.3938L296.867 4.39382Z" id="Shape" fill="#263238" fill-rule="evenodd" stroke="none" />
            <path d="M294.651 52.9425C283.7 51.6036 275.907 41.6399 277.246 30.688C278.584 19.7361 288.548 11.9433 299.5 13.2822C310.452 14.6211 318.245 24.5847 316.906 35.5366C315.567 46.4885 305.603 54.2814 294.651 52.9425Z" id="Circle" fill="#FFFFFF" fill-rule="evenodd" stroke="none" />
            <path d="M297.069 53.591C296.513 53.591 295.948 53.591 295.382 53.5203C284.108 52.5934 275.72 42.7042 276.644 31.4301C277.568 20.1561 287.455 11.7649 298.729 12.6863L298.725 12.686C309.715 13.5321 318.065 22.9236 317.619 33.9371C317.173 44.9506 308.091 53.6363 297.069 53.591L297.069 53.591ZM297.018 13.6354C286.904 13.67 278.5 21.4419 277.677 31.5225C276.804 42.2404 284.784 51.6373 295.501 52.5121C306.219 53.3868 315.617 45.4083 316.493 34.6906C317.37 23.9729 309.392 14.5738 298.675 13.696C298.099 13.6556 297.564 13.6354 297.018 13.6354L297.018 13.6354Z" id="Shape" fill="#263238" fill-rule="evenodd" stroke="none" />
            <path d="M277.145 31.9904L277.228 30.9837L297.109 32.6113L297.026 33.6179L277.145 31.9904Z" id="Rectangle" fill="#263238" fill-rule="evenodd" stroke="none" />
            <path d="M277.526 37.2132L296.936 32.6141L297.169 33.5969L277.759 38.196L277.526 37.2132Z" id="Rectangle" fill="#263238" fill-rule="evenodd" stroke="none" />
            <path d="M279.743 43.0366L296.787 32.6735L297.312 33.5365L280.267 43.8996L279.743 43.0366Z" id="Rectangle" fill="#263238" fill-rule="evenodd" stroke="none" />
            <path d="M283.671 47.91L296.673 32.7825L297.439 33.4409L284.437 48.5683L283.671 47.91Z" id="Rectangle" fill="#263238" fill-rule="evenodd" stroke="none" />
            <path d="M288.905 51.3371L296.606 32.9361L297.537 33.326L289.836 51.727L288.905 51.3371Z" id="Rectangle" fill="#263238" fill-rule="evenodd" stroke="none" />
            <path d="M294.914 52.946L296.531 33.0641L297.537 33.146L295.92 53.0279L294.914 52.946Z" id="Rectangle" fill="#263238" fill-rule="evenodd" stroke="none" />
            <path d="M296.558 33.2446L297.541 33.0119L302.137 52.4228L301.154 52.6555L296.558 33.2446Z" id="Rectangle" fill="#263238" fill-rule="evenodd" stroke="none" />
            <path d="M296.628 33.3844L297.491 32.8594L307.86 49.9001L306.998 50.4251L296.628 33.3844Z" id="Rectangle" fill="#263238" fill-rule="evenodd" stroke="none" />
            <path d="M296.745 33.5114L297.403 32.7455L312.531 45.7479L311.872 46.5139L296.745 33.5114Z" id="Rectangle" fill="#263238" fill-rule="evenodd" stroke="none" />
            <path d="M298.086 35.267L298.48 34.3378L316.832 42.1173L316.438 43.0465L298.086 35.267Z" id="Rectangle" fill="#263238" fill-rule="evenodd" stroke="none" />
            <path d="M297.034 33.6236L297.116 32.6169L316.997 34.2445L316.914 35.2511L297.034 33.6236Z" id="Rectangle" fill="#263238" fill-rule="evenodd" stroke="none" />
            <path d="M296.941 32.619L316.351 28.0199L316.584 29.0027L297.174 33.6017L296.941 32.619Z" id="Rectangle" fill="#263238" fill-rule="evenodd" stroke="none" />
            <path d="M296.789 32.659L313.834 22.2959L314.358 23.1589L297.314 33.522L296.789 32.659Z" id="Rectangle" fill="#263238" fill-rule="evenodd" stroke="none" />
            <path d="M296.675 32.778L309.678 17.6506L310.444 18.3089L297.441 33.4364L296.675 32.778Z" id="Rectangle" fill="#263238" fill-rule="evenodd" stroke="none" />
            <path d="M296.605 32.9314L304.306 14.5305L305.238 14.9204L297.537 33.3214L296.605 32.9314Z" id="Rectangle" fill="#263238" fill-rule="evenodd" stroke="none" />
            <path d="M296.545 33.0691L298.162 13.1872L299.169 13.2691L297.551 33.1509L296.545 33.0691Z" id="Rectangle" fill="#263238" fill-rule="evenodd" stroke="none" />
            <path d="M291.967 13.8277L292.95 13.595L297.545 33.0059L296.563 33.2386L291.967 13.8277Z" id="Rectangle" fill="#263238" fill-rule="evenodd" stroke="none" />
            <path d="M286.253 16.3527L287.116 15.8276L297.485 32.8684L296.622 33.3934L286.253 16.3527Z" id="Rectangle" fill="#263238" fill-rule="evenodd" stroke="none" />
            <path d="M281.61 20.5038L282.269 19.7378L297.396 32.7403L296.738 33.5062L281.61 20.5038Z" id="Rectangle" fill="#263238" fill-rule="evenodd" stroke="none" />
            <path d="M278.454 25.8894L278.843 24.9575L297.248 32.6489L296.859 33.5808L278.454 25.8894Z" id="Rectangle" fill="#263238" fill-rule="evenodd" stroke="none" />
            <path d="M288.468 40.1231C284.583 35.4751 285.202 28.5577 289.85 24.6728C294.498 20.7878 301.415 21.4064 305.3 26.0544C309.185 30.7024 308.566 37.6198 303.918 41.5047C299.27 45.3897 292.353 44.7711 288.468 40.1231Z" id="Circle" fill="#263238" fill-rule="evenodd" stroke="none" />
            <path d="M296.867 44.5616C296.554 44.5616 296.241 44.5616 295.917 44.5616C289.695 44.3032 284.822 39.1168 284.951 32.8907C285.08 26.6646 290.165 21.6848 296.392 21.6848C302.62 21.6848 307.704 26.6646 307.833 32.8907C307.962 39.1168 303.089 44.3032 296.867 44.5616L296.867 44.5616ZM296.867 22.6345C291.429 22.6428 286.905 26.8193 286.464 32.2396C285.998 37.993 290.283 43.0351 296.036 43.5026C301.79 43.9701 306.833 39.6861 307.302 33.933C307.771 28.1798 303.488 23.1354 297.735 22.6648L297.735 22.6648C297.453 22.6446 297.16 22.6345 296.867 22.6345L296.867 22.6345Z" id="Shape" fill="#263238" fill-rule="evenodd" stroke="none" />
            <path d="M248.132 46.8952C238.374 46.3564 230.9 38.0093 231.439 28.2514C231.977 18.4935 240.325 11.0198 250.082 11.5586C259.84 12.0973 267.314 20.4444 266.775 30.2023C266.237 39.9602 257.889 47.4339 248.132 46.8952Z" id="Circle" fill="#FFFFFF" fill-rule="evenodd" stroke="none" />
            <path d="M249.134 47.4401C248.639 47.4401 248.124 47.4401 247.639 47.3795C237.778 46.5722 230.372 38.0263 230.977 28.1501C231.581 18.2738 239.972 10.6942 249.859 11.095C259.745 11.4958 267.496 19.7297 267.299 29.6224C267.102 39.5152 259.029 47.4337 249.134 47.4401L249.134 47.4401ZM249.134 12.09C239.886 12.155 232.387 19.6013 232.257 28.8485C232.127 38.0956 239.413 45.7502 248.655 46.0757C257.898 46.4012 265.704 39.2781 266.225 30.0447C266.746 20.8113 259.789 12.8559 250.569 12.1405C250.043 12.0698 249.569 12.0496 249.094 12.0496L249.134 12.09Z" id="Shape" fill="#263238" fill-rule="evenodd" stroke="none" />
            <path d="M237.92 33.6199C235.517 27.378 238.63 20.3707 244.872 17.9684C251.114 15.5662 258.121 18.6787 260.523 24.9205C262.926 31.1623 259.813 38.1697 253.571 40.572C247.329 42.9742 240.322 39.8616 237.92 33.6199Z" id="Circle" fill="#FFFFFF" fill-rule="evenodd" stroke="none" />
            <path d="M249.235 41.8649C248.892 41.8649 248.538 41.8649 248.225 41.8649C241.281 41.3054 236.106 35.2235 236.664 28.2797C237.222 21.3359 243.303 16.159 250.247 16.716L250.245 16.7159C256.994 17.2573 262.112 23.0303 261.841 29.7958C261.57 36.5612 256.006 41.9059 249.235 41.9053L249.235 41.8649ZM249.235 17.6248C242.914 17.8859 237.962 23.1544 238.092 29.48C238.223 35.8055 243.388 40.8651 249.715 40.8652C256.042 40.8652 261.207 35.8055 261.338 29.48C261.468 23.1545 256.516 17.886 250.195 17.6248C249.851 17.6551 249.528 17.6451 249.215 17.6451L249.235 17.6248Z" id="Shape" fill="#263238" fill-rule="evenodd" stroke="none" />
            <path d="M237.141 28.7745L237.223 27.7679L249.272 28.7543L249.19 29.761L237.141 28.7745Z" id="Rectangle" fill="#263238" fill-rule="evenodd" stroke="none" />
            <path d="M237.341 31.5425L249.105 28.7552L249.338 29.7379L237.574 32.5253L237.341 31.5425Z" id="Rectangle" fill="#263238" fill-rule="evenodd" stroke="none" />
            <path d="M238.634 35.1015L248.964 28.8207L249.489 29.6837L239.158 35.9645L238.634 35.1015Z" id="Rectangle" fill="#263238" fill-rule="evenodd" stroke="none" />
            <path d="M240.959 38.0771L248.833 28.9032L249.6 29.561L241.726 38.7349L240.959 38.0771Z" id="Rectangle" fill="#263238" fill-rule="evenodd" stroke="none" />
            <path d="M244.083 40.1829L248.745 29.0281L249.677 29.4175L245.015 40.5724L244.083 40.1829Z" id="Rectangle" fill="#263238" fill-rule="evenodd" stroke="none" />
            <path d="M247.747 41.271L248.74 29.2221L249.746 29.3051L248.754 41.3539L247.747 41.271Z" id="Rectangle" fill="#263238" fill-rule="evenodd" stroke="none" />
            <path d="M248.738 29.3623L249.721 29.1296L252.506 40.894L251.523 41.1267L248.738 29.3623Z" id="Rectangle" fill="#263238" fill-rule="evenodd" stroke="none" />
            <path d="M248.791 29.5385L249.654 29.0135L255.939 39.3414L255.076 39.8664L248.791 29.5385Z" id="Rectangle" fill="#263238" fill-rule="evenodd" stroke="none" />
            <path d="M248.894 29.6362L249.553 28.8703L258.721 36.7508L258.063 37.5167L248.894 29.6362Z" id="Rectangle" fill="#263238" fill-rule="evenodd" stroke="none" />
            <path d="M249.048 29.7341L249.437 28.8022L260.592 33.4638L260.202 34.3957L249.048 29.7341Z" id="Rectangle" fill="#263238" fill-rule="evenodd" stroke="none" />
            <path d="M249.2 29.7641L249.283 28.7575L261.332 29.7439L261.25 30.7505L249.2 29.7641Z" id="Rectangle" fill="#263238" fill-rule="evenodd" stroke="none" />
            <path d="M249.107 28.7633L260.871 25.976L261.104 26.9587L249.34 29.7461L249.107 28.7633Z" id="Rectangle" fill="#263238" fill-rule="evenodd" stroke="none" />
            <path d="M248.966 28.8098L259.296 22.529L259.821 23.392L249.491 29.6728L248.966 28.8098Z" id="Rectangle" fill="#263238" fill-rule="evenodd" stroke="none" />
            <path d="M248.841 28.925L256.721 19.7566L257.487 20.415L249.607 29.5833L248.841 28.925Z" id="Rectangle" fill="#263238" fill-rule="evenodd" stroke="none" />
            <path d="M248.778 29.078L253.446 17.9256L254.377 18.3155L249.71 29.4679L248.778 29.078Z" id="Rectangle" fill="#263238" fill-rule="evenodd" stroke="none" />
            <path d="M248.712 29.2007L249.692 17.1508L250.699 17.2327L249.719 29.2826L248.712 29.2007Z" id="Rectangle" fill="#263238" fill-rule="evenodd" stroke="none" />
            <path d="M245.953 17.5767L246.936 17.3438L249.723 29.1078L248.74 29.3407L245.953 17.5767Z" id="Rectangle" fill="#263238" fill-rule="evenodd" stroke="none" />
            <path d="M242.512 19.1607L243.375 18.6356L249.661 28.9624L248.798 29.4876L242.512 19.1607Z" id="Rectangle" fill="#263238" fill-rule="evenodd" stroke="none" />
            <path d="M239.73 21.7598L240.388 20.9939L249.556 28.8743L248.898 29.6403L239.73 21.7598Z" id="Rectangle" fill="#263238" fill-rule="evenodd" stroke="none" />
            <path d="M237.887 25.0627L238.277 24.1308L249.432 28.7924L249.042 29.7243L237.887 25.0627Z" id="Rectangle" fill="#263238" fill-rule="evenodd" stroke="none" />
            <path d="M249.669 22.6142C246.99 22.3864 244.437 23.7959 243.202 26.1849C241.968 28.574 242.295 31.4717 244.03 33.5257C245.766 35.5798 248.569 36.3852 251.13 35.5663C253.692 34.7473 255.507 32.4653 255.729 29.7853C256.032 26.1329 253.321 22.9247 249.669 22.6142L249.669 22.6142Z" id="Shape" fill="#263238" fill-rule="evenodd" stroke="none" />
            <path d="M249.124 36.3907L248.538 36.3907C245.991 36.1814 243.749 34.6289 242.656 32.3181C241.564 30.0072 241.787 27.289 243.242 25.1875C244.697 23.0859 247.163 21.9202 249.71 22.1295L249.71 22.1295C253.554 22.4177 256.478 25.7015 256.32 29.5533C256.162 33.4052 252.979 36.4385 249.124 36.4109L249.124 36.3907ZM249.124 23.0991C245.785 23.2365 243.169 26.0194 243.237 29.361C243.306 32.7025 246.034 35.3755 249.377 35.3755C252.719 35.3755 255.447 32.7025 255.516 29.361C255.585 26.0194 252.969 23.2365 249.629 23.0991L249.124 23.0991Z" id="Shape" fill="#263238" fill-rule="evenodd" stroke="none" />
            <path d="M143.713 29.7806C140.027 17.8068 146.745 5.11198 158.719 1.42604C170.693 -2.25989 183.388 4.45881 187.074 16.4327C190.76 28.4066 184.041 41.1013 172.067 44.7873C160.093 48.4732 147.399 41.7545 143.713 29.7806Z" id="Circle" fill="#FFFFFF" fill-rule="evenodd" stroke="none" />
            <path d="M165.405 46.2988C164.779 46.2988 164.143 46.2988 163.496 46.2179C150.942 45.1661 141.533 34.2673 142.326 21.6935C143.118 9.11967 153.82 -0.511696 166.408 0.0210751C178.995 0.553846 188.846 11.0551 188.573 23.6509C188.3 36.2467 178.004 46.3116 165.405 46.2987L165.405 46.2988ZM165.355 0.929583C153.263 0.904819 143.372 10.5531 143.095 22.6414C142.819 34.7297 152.259 44.8202 164.339 45.3483C176.419 45.8765 186.703 36.6484 187.483 24.5821C188.263 12.5158 179.251 2.04104 167.203 1.01039C166.577 0.959886 165.971 0.929583 165.355 0.929583L165.355 0.929583Z" id="Shape" fill="#263238" fill-rule="evenodd" stroke="none" />
            <path d="M145.072 38.2514C136.706 28.9264 137.482 14.5843 146.807 6.21743C156.132 -2.14941 170.474 -1.37268 178.841 7.95233C187.208 17.2773 186.431 31.6194 177.106 39.9862C167.781 48.3531 153.439 47.5764 145.072 38.2514Z" id="Circle" fill="#FFFFFF" fill-rule="evenodd" stroke="none" />
            <path d="M161.981 46.2988C161.345 46.2988 160.709 46.2988 160.072 46.2179C147.523 45.1664 138.119 34.2722 138.911 21.704C139.704 9.13579 150.401 -0.491278 162.983 0.0412528C175.565 0.573793 185.411 11.0704 185.138 23.6606C184.866 36.2508 174.575 46.3113 161.981 46.2988L161.981 46.2988ZM161.981 0.929517C149.887 0.887723 139.98 10.5266 139.691 22.6176C139.401 34.7085 148.835 44.8104 160.918 45.3475C173 45.8845 183.293 36.6594 184.078 24.5905C184.862 12.5215 175.85 2.04173 163.799 1.01032C163.163 0.95982 162.537 0.929517 161.951 0.929517L161.981 0.929517Z" id="Shape" fill="#263238" fill-rule="evenodd" stroke="none" />
            <path d="M148.108 27.3664C145.756 19.7153 150.051 11.6059 157.703 9.25361C165.354 6.90128 173.463 11.1968 175.815 18.8479C178.168 26.499 173.872 34.6083 166.221 36.9607C158.57 39.313 150.461 35.0175 148.108 27.3664Z" id="Circle" fill="#FFFFFF" fill-rule="evenodd" stroke="none" />
            <path d="M161.992 38.1077C161.577 38.1077 161.153 38.1077 160.739 38.0572C152.617 37.3883 146.519 30.3477 147.018 22.2129C147.517 14.078 154.428 7.83488 162.572 8.16323C170.715 8.49158 177.102 15.2709 176.944 23.4195C176.786 31.5681 170.142 38.095 161.992 38.1077L161.992 38.1077ZM161.941 9.12067C154.667 9.13319 148.617 14.7182 148.023 21.9679C147.402 29.6601 153.133 36.4001 160.825 37.0249C168.516 37.6498 175.259 31.923 175.888 24.2314C176.517 16.5399 170.794 9.79393 163.103 9.16109L163.102 9.16108C162.719 9.13076 162.325 9.12067 161.941 9.12067L161.941 9.12067Z" id="Shape" fill="#263238" fill-rule="evenodd" stroke="none" />
            <path d="M147.513 22.4402L147.595 21.4336L162.02 22.6145L161.938 23.6211L147.513 22.4402Z" id="Rectangle" fill="#263238" fill-rule="evenodd" stroke="none" />
            <path d="M147.765 25.9489L161.848 22.612L162.081 23.5948L147.998 26.9317L147.765 25.9489Z" id="Rectangle" fill="#263238" fill-rule="evenodd" stroke="none" />
            <path d="M149.34 30.1879L161.707 22.6687L162.232 23.5318L149.865 31.0509L149.34 30.1879Z" id="Rectangle" fill="#263238" fill-rule="evenodd" stroke="none" />
            <path d="M152.146 33.7377L161.572 22.7551L162.339 23.4129L152.912 34.3955L152.146 33.7377Z" id="Rectangle" fill="#263238" fill-rule="evenodd" stroke="none" />
            <path d="M155.913 36.2427L161.494 22.8886L162.426 23.278L156.845 36.6322L155.913 36.2427Z" id="Rectangle" fill="#263238" fill-rule="evenodd" stroke="none" />
            <path d="M160.297 37.501L161.47 23.0753L162.477 23.1572L161.303 37.5828L160.297 37.501Z" id="Rectangle" fill="#263238" fill-rule="evenodd" stroke="none" />
            <path d="M161.463 23.2496L162.446 23.0169L165.78 37.1008L164.798 37.3335L161.463 23.2496Z" id="Rectangle" fill="#263238" fill-rule="evenodd" stroke="none" />
            <path d="M161.533 23.3797L162.396 22.8547L169.92 35.2189L169.057 35.7439L161.533 23.3797Z" id="Rectangle" fill="#263238" fill-rule="evenodd" stroke="none" />
            <path d="M161.637 23.5051L162.295 22.7391L173.271 32.1733L172.613 32.9392L161.637 23.5051Z" id="Rectangle" fill="#263238" fill-rule="evenodd" stroke="none" />
            <path d="M161.785 23.5945L162.175 22.6626L175.529 28.2433L175.139 29.1752L161.785 23.5945Z" id="Rectangle" fill="#263238" fill-rule="evenodd" stroke="none" />
            <path d="M161.937 23.625L162.019 22.6183L176.444 23.7992L176.362 24.8059L161.937 23.625Z" id="Rectangle" fill="#263238" fill-rule="evenodd" stroke="none" />
            <path d="M161.848 22.6209L175.931 19.284L176.164 20.2667L162.081 23.6037L161.848 22.6209Z" id="Rectangle" fill="#263238" fill-rule="evenodd" stroke="none" />
            <path d="M161.701 22.6688L174.067 15.1497L174.592 16.0127L162.225 23.5318L161.701 22.6688Z" id="Rectangle" fill="#263238" fill-rule="evenodd" stroke="none" />
            <path d="M161.574 22.762L171 11.7794L171.767 12.4372L162.34 23.4198L161.574 22.762Z" id="Rectangle" fill="#263238" fill-rule="evenodd" stroke="none" />
            <path d="M161.489 22.9L167.07 9.54588L168.002 9.93532L162.421 23.2894L161.489 22.9Z" id="Rectangle" fill="#263238" fill-rule="evenodd" stroke="none" />
            <path d="M161.477 23.079L162.658 8.65395L163.665 8.73635L162.484 23.1614L161.477 23.079Z" id="Rectangle" fill="#263238" fill-rule="evenodd" stroke="none" />
            <path d="M158.135 9.14547L159.118 8.91278L162.452 22.9967L161.47 23.2294L158.135 9.14547Z" id="Rectangle" fill="#263238" fill-rule="evenodd" stroke="none" />
            <path d="M154.012 11.0136L154.875 10.4885L162.398 22.8528L161.536 23.3778L154.012 11.0136Z" id="Rectangle" fill="#263238" fill-rule="evenodd" stroke="none" />
            <path d="M150.66 14.0567L151.318 13.2908L162.294 22.725L161.636 23.4909L150.66 14.0567Z" id="Rectangle" fill="#263238" fill-rule="evenodd" stroke="none" />
            <path d="M148.413 18.0046L148.802 17.0727L162.156 22.6534L161.767 23.5853L148.413 18.0046Z" id="Rectangle" fill="#263238" fill-rule="evenodd" stroke="none" />
            <path d="M162.658 14.6151C157.973 14.2353 153.867 17.7235 153.484 22.4081C153.101 27.0926 156.587 31.2012 161.271 31.5871C165.955 31.973 170.066 28.4901 170.455 23.8061C170.839 19.1153 167.349 15.0009 162.658 14.6151L162.658 14.6151Z" id="Shape" fill="#263238" fill-rule="evenodd" stroke="none" />
            <path d="M161.971 32.1285L161.224 32.1285C156.258 31.7198 152.563 27.3634 152.97 22.3972C153.377 17.431 157.732 13.7347 162.699 14.1404L162.698 14.1404C167.582 14.4588 171.321 18.6141 171.124 23.5043C170.926 28.3945 166.865 32.2349 161.971 32.1588L161.971 32.1285ZM161.971 15.0897C157.576 15.2684 154.132 18.9296 154.221 23.3272C154.31 27.7248 157.901 31.243 162.299 31.2431C166.698 31.2431 170.288 27.7248 170.378 23.3272C170.467 18.9296 167.023 15.2684 162.628 15.0897L162.628 15.0897L161.971 15.0897Z" id="Shape" fill="#263238" fill-rule="evenodd" stroke="none" />
            <path d="M227.035 286.184C227.151 288.162 226.049 290.011 224.253 290.85C222.458 291.689 220.332 291.348 218.889 289.989C217.447 288.631 216.978 286.529 217.707 284.687C218.436 282.844 220.216 281.632 222.197 281.629C223.443 281.591 224.653 282.049 225.56 282.904C226.468 283.758 226.999 284.938 227.035 286.184L227.035 286.184Z" id="Shape" fill="#263238" fill-rule="evenodd" stroke="none" />
            <path d="M222.198 291.244C219.452 291.084 217.339 288.758 217.444 286.01C217.549 283.262 219.833 281.103 222.583 281.153C225.332 281.203 227.536 283.444 227.541 286.194C227.453 289.061 225.065 291.318 222.198 291.244L222.198 291.244ZM222.198 282.154C220.012 282.313 218.351 284.186 218.455 286.375C218.559 288.564 220.39 290.271 222.581 290.222C224.772 290.173 226.525 288.386 226.531 286.194C226.454 283.877 224.515 282.06 222.198 282.134L222.198 282.154Z" id="Shape" fill="#263238" fill-rule="evenodd" stroke="none" />
            <path d="M238.287 286.184C238.403 288.162 237.3 290.011 235.505 290.85C233.709 291.689 231.584 291.348 230.141 289.989C228.698 288.631 228.23 286.529 228.959 284.687C229.688 282.844 231.467 281.632 233.449 281.629C234.695 281.591 235.905 282.049 236.812 282.904C237.719 283.758 238.25 284.938 238.287 286.184L238.287 286.184Z" id="Shape" fill="#263238" fill-rule="evenodd" stroke="none" />
            <path d="M233.479 291.244C230.734 291.084 228.621 288.758 228.726 286.01C228.831 283.262 231.115 281.103 233.864 281.153C236.614 281.203 238.818 283.444 238.822 286.194C238.734 289.061 236.346 291.318 233.479 291.244L233.479 291.244ZM233.479 282.154C231.293 282.313 229.633 284.186 229.737 286.375C229.841 288.564 231.672 290.271 233.863 290.222C236.054 290.173 237.806 288.386 237.812 286.194C237.735 283.877 235.796 282.06 233.479 282.134L233.479 282.154Z" id="Shape" fill="#263238" fill-rule="evenodd" stroke="none" />
            <path d="M249.599 286.184C249.719 288.168 248.616 290.024 246.816 290.867C245.016 291.71 242.884 291.369 241.436 290.006C239.989 288.644 239.52 286.536 240.254 284.689C240.987 282.841 242.773 281.628 244.761 281.629C247.353 281.555 249.516 283.592 249.599 286.184L249.599 286.184Z" id="Shape" fill="#263238" fill-rule="evenodd" stroke="none" />
            <path d="M244.761 291.244C242.016 291.084 239.903 288.758 240.008 286.01C240.112 283.262 242.396 281.103 245.146 281.153C247.895 281.203 250.099 283.444 250.104 286.194C250.01 289.058 247.626 291.312 244.761 291.244L244.761 291.244ZM244.761 282.154C242.575 282.313 240.914 284.186 241.018 286.375C241.122 288.564 242.953 290.271 245.144 290.222C247.336 290.173 249.088 288.386 249.094 286.194C249.012 283.879 247.076 282.066 244.761 282.134L244.761 282.154Z" id="Shape" fill="#263238" fill-rule="evenodd" stroke="none" />
            <path d="M260.871 286.184C260.986 288.163 259.883 290.013 258.086 290.851C256.289 291.689 254.163 291.346 252.721 289.986C251.279 288.625 250.813 286.522 251.545 284.68C252.278 282.837 254.06 281.628 256.043 281.629C258.633 281.555 260.794 283.594 260.871 286.184L260.871 286.184Z" id="Shape" fill="#263238" fill-rule="evenodd" stroke="none" />
            <path d="M256.043 291.244C253.297 291.084 251.184 288.758 251.289 286.01C251.394 283.262 253.678 281.103 256.428 281.153C259.177 281.203 261.381 283.444 261.386 286.194C261.298 289.061 258.91 291.318 256.043 291.244L256.043 291.244ZM256.043 282.154C253.857 282.313 252.196 284.186 252.3 286.375C252.404 288.564 254.235 290.271 256.426 290.222C258.617 290.173 260.37 288.386 260.376 286.194C260.299 283.877 258.36 282.06 256.043 282.134L256.043 282.154Z" id="Shape" fill="#263238" fill-rule="evenodd" stroke="none" />
            <path d="M272.152 286.184C272.268 288.163 271.165 290.013 269.368 290.851C267.571 291.689 265.445 291.346 264.003 289.986C262.56 288.625 262.094 286.522 262.827 284.68C263.559 282.837 265.342 281.628 267.324 281.629C269.915 281.555 272.075 283.594 272.152 286.184L272.152 286.184Z" id="Shape" fill="#263238" fill-rule="evenodd" stroke="none" />
            <path d="M267.324 291.244C264.577 291.09 262.459 288.765 262.561 286.016C262.662 283.267 264.945 281.104 267.696 281.153C270.447 281.201 272.653 283.443 272.657 286.194C272.569 289.057 270.188 291.312 267.324 291.244L267.324 291.244ZM267.324 282.154C265.137 282.307 263.471 284.179 263.571 286.369C263.672 288.56 265.502 290.271 267.695 290.223C269.888 290.175 271.642 288.387 271.647 286.194C271.57 283.881 269.638 282.066 267.324 282.134L267.324 282.154Z" id="Shape" fill="#263238" fill-rule="evenodd" stroke="none" />
            <path d="M283.434 286.184C283.55 288.163 282.446 290.013 280.649 290.851C278.853 291.689 276.726 291.346 275.284 289.986C273.842 288.625 273.376 286.522 274.108 284.68C274.841 282.837 276.623 281.628 278.606 281.629C281.196 281.555 283.357 283.594 283.434 286.184L283.434 286.184Z" id="Shape" fill="#263238" fill-rule="evenodd" stroke="none" />
            <path d="M278.606 291.244C275.859 291.09 273.741 288.765 273.842 286.016C273.944 283.267 276.227 281.104 278.978 281.153C281.729 281.201 283.935 283.443 283.939 286.194C283.851 289.057 281.469 291.312 278.606 291.244L278.606 291.244ZM278.606 282.154C276.418 282.307 274.753 284.179 274.853 286.369C274.954 288.56 276.784 290.271 278.977 290.223C281.169 290.175 282.924 288.387 282.929 286.194C282.852 283.881 280.919 282.066 278.606 282.134L278.606 282.154Z" id="Shape" fill="#263238" fill-rule="evenodd" stroke="none" />
            <path d="M294.716 286.184C294.831 288.162 293.729 290.011 291.933 290.85C290.138 291.689 288.012 291.348 286.57 289.989C285.127 288.631 284.658 286.529 285.387 284.687C286.117 282.844 287.896 281.632 289.878 281.629C291.123 281.591 292.333 282.049 293.241 282.904C294.148 283.758 294.679 284.938 294.716 286.184L294.716 286.184Z" id="Shape" fill="#263238" fill-rule="evenodd" stroke="none" />
            <path d="M289.878 291.244C287.132 291.084 285.019 288.758 285.124 286.01C285.229 283.262 287.513 281.103 290.262 281.153C293.012 281.203 295.216 283.444 295.22 286.194C295.132 289.061 292.745 291.318 289.878 291.244L289.878 291.244ZM289.878 282.154C287.692 282.313 286.031 284.186 286.135 286.375C286.239 288.564 288.07 290.271 290.261 290.222C292.452 290.173 294.205 288.386 294.211 286.194C294.134 283.877 292.195 282.06 289.878 282.134L289.878 282.154Z" id="Shape" fill="#263238" fill-rule="evenodd" stroke="none" />
            <path d="M305.957 286.184C306.073 288.162 304.97 290.011 303.175 290.85C301.379 291.689 299.254 291.348 297.811 289.989C296.368 288.631 295.9 286.529 296.629 284.687C297.358 282.844 299.137 281.632 301.119 281.629C302.365 281.591 303.574 282.049 304.482 282.904C305.389 283.758 305.92 284.938 305.957 286.184L305.957 286.184Z" id="Shape" fill="#263238" fill-rule="evenodd" stroke="none" />
            <path d="M301.159 291.244C298.414 291.084 296.301 288.758 296.406 286.01C296.511 283.262 298.795 281.103 301.544 281.153C304.294 281.203 306.498 283.444 306.502 286.194C306.414 289.061 304.026 291.318 301.159 291.244L301.159 291.244ZM301.159 282.154C298.973 282.313 297.313 284.186 297.417 286.375C297.521 288.564 299.352 290.271 301.543 290.222C303.734 290.173 305.487 288.386 305.492 286.194C305.415 283.877 303.477 282.06 301.159 282.134L301.159 282.154Z" id="Shape" fill="#263238" fill-rule="evenodd" stroke="none" />
            <path d="M317.279 286.184C317.399 288.168 316.296 290.024 314.496 290.867C312.696 291.71 310.564 291.369 309.116 290.006C307.669 288.644 307.2 286.536 307.934 284.689C308.667 282.841 310.453 281.628 312.441 281.629C315.033 281.555 317.196 283.592 317.279 286.184L317.279 286.184Z" id="Shape" fill="#263238" fill-rule="evenodd" stroke="none" />
            <path d="M312.441 291.244C309.696 291.084 307.583 288.758 307.688 286.01C307.792 283.262 310.077 281.103 312.826 281.153C315.575 281.203 317.779 283.444 317.784 286.194C317.691 289.058 315.306 291.312 312.441 291.244L312.441 291.244ZM312.441 282.154C310.255 282.313 308.594 284.186 308.699 286.375C308.803 288.564 310.633 290.271 312.825 290.222C315.016 290.173 316.768 288.386 316.774 286.194C316.692 283.879 314.756 282.066 312.441 282.134L312.441 282.154Z" id="Shape" fill="#263238" fill-rule="evenodd" stroke="none" />
            <path d="M328.561 286.184C328.681 288.168 327.578 290.024 325.778 290.867C323.978 291.71 321.845 291.369 320.398 290.006C318.951 288.644 318.482 286.536 319.215 284.689C319.948 282.841 321.735 281.628 323.723 281.629C326.315 281.555 328.478 283.592 328.561 286.184L328.561 286.184Z" id="Shape" fill="#263238" fill-rule="evenodd" stroke="none" />
            <path d="M323.723 291.244C320.977 291.084 318.864 288.758 318.969 286.01C319.074 283.262 321.358 281.103 324.108 281.153C326.857 281.203 329.061 283.444 329.066 286.194C328.978 289.061 326.59 291.318 323.723 291.244L323.723 291.244ZM323.723 282.154C321.537 282.313 319.876 284.186 319.98 286.375C320.084 288.564 321.915 290.271 324.106 290.222C326.297 290.173 328.05 288.386 328.056 286.194C327.979 283.877 326.04 282.06 323.723 282.134L323.723 282.154Z" id="Shape" fill="#263238" fill-rule="evenodd" stroke="none" />
            <path d="M339.832 286.184C339.948 288.163 338.845 290.013 337.048 290.851C335.251 291.689 333.125 291.346 331.683 289.986C330.24 288.625 329.775 286.522 330.507 284.68C331.239 282.837 333.022 281.628 335.004 281.629C337.595 281.555 339.755 283.594 339.832 286.184L339.832 286.184Z" id="Shape" fill="#263238" fill-rule="evenodd" stroke="none" />
            <path d="M335.004 291.244C332.258 291.09 330.139 288.765 330.241 286.016C330.342 283.267 332.626 281.104 335.376 281.153C338.127 281.201 340.333 283.443 340.337 286.194C340.249 289.057 337.868 291.312 335.004 291.244L335.004 291.244ZM335.004 282.154C332.817 282.307 331.151 284.179 331.252 286.369C331.352 288.56 333.182 290.271 335.375 290.223C337.568 290.175 339.322 288.387 339.327 286.194C339.25 283.881 337.318 282.066 335.004 282.134L335.004 282.154Z" id="Shape" fill="#263238" fill-rule="evenodd" stroke="none" />
            <path d="M213.966 286.093L343.236 286.093L343.236 302.899L213.966 302.899L213.966 286.093Z" id="Rectangle" fill="#263238" fill-rule="evenodd" stroke="none" />
            <path d="M343.741 303.404L213.451 303.404L213.451 285.588L343.741 285.588L343.741 303.404ZM214.461 302.394L342.731 302.394L342.731 286.598L214.461 286.598L214.461 302.394Z" id="Shape" fill="#263238" fill-rule="evenodd" stroke="none" />
          </g>
        </g>
      </g>
    </g>
    <path d="M304.972 317.732L432.961 198.381Q433.32 198.046 433.695 197.729Q434.07 197.412 434.46 197.114Q434.85 196.816 435.254 196.538Q435.659 196.259 436.076 196.001Q436.494 195.743 436.923 195.505Q437.353 195.267 437.794 195.051Q438.234 194.835 438.685 194.641Q439.136 194.447 439.596 194.275Q440.056 194.103 440.524 193.953Q440.991 193.804 441.466 193.678Q441.94 193.552 442.42 193.45Q442.901 193.347 443.385 193.268Q443.87 193.189 444.358 193.134Q444.845 193.079 445.335 193.048Q445.825 193.017 446.316 193.01Q446.807 193.003 447.298 193.02Q447.788 193.037 448.278 193.079Q448.767 193.12 449.253 193.185Q449.74 193.25 450.223 193.339Q450.706 193.428 451.184 193.54Q451.661 193.653 452.133 193.789Q452.605 193.925 453.07 194.083Q453.534 194.242 453.99 194.424Q454.446 194.605 454.893 194.809Q455.34 195.012 455.776 195.238Q456.212 195.463 456.637 195.709Q457.062 195.956 457.474 196.223Q457.886 196.49 458.284 196.776Q458.683 197.063 459.067 197.369Q459.45 197.675 459.819 198Q460.187 198.324 460.539 198.667Q460.891 199.009 461.226 199.368L474.868 213.996Q475.202 214.355 475.519 214.73Q475.836 215.106 476.134 215.496Q476.432 215.886 476.711 216.29Q476.989 216.694 477.247 217.112Q477.506 217.529 477.743 217.959Q477.981 218.389 478.197 218.829Q478.413 219.27 478.607 219.721Q478.802 220.172 478.974 220.632Q479.146 221.092 479.295 221.559Q479.444 222.027 479.57 222.502Q479.696 222.976 479.799 223.456Q479.901 223.936 479.98 224.421Q480.059 224.905 480.114 225.393Q480.169 225.881 480.2 226.371Q480.231 226.861 480.238 227.352Q480.245 227.843 480.228 228.334Q480.211 228.824 480.17 229.313Q480.128 229.803 480.063 230.289Q479.998 230.776 479.909 231.259Q479.82 231.742 479.708 232.219Q479.595 232.697 479.459 233.169Q479.324 233.641 479.165 234.105Q479.006 234.57 478.824 235.026Q478.643 235.482 478.439 235.929Q478.236 236.376 478.011 236.812Q477.785 237.248 477.539 237.673Q477.293 238.098 477.026 238.51Q476.759 238.922 476.472 239.32Q476.185 239.718 475.879 240.102Q475.573 240.486 475.248 240.855Q474.924 241.223 474.582 241.575Q474.24 241.927 473.88 242.262L345.892 361.613Q345.533 361.948 345.158 362.265Q344.783 362.582 344.393 362.88Q344.003 363.178 343.598 363.456Q343.194 363.735 342.777 363.993Q342.359 364.251 341.929 364.489Q341.5 364.726 341.059 364.943Q340.618 365.159 340.167 365.353Q339.716 365.547 339.257 365.719Q338.797 365.891 338.329 366.04Q337.861 366.189 337.387 366.315Q336.912 366.441 336.432 366.544Q335.952 366.647 335.467 366.726Q334.983 366.805 334.495 366.86Q334.007 366.915 333.517 366.946Q333.027 366.977 332.536 366.984Q332.046 366.991 331.555 366.974Q331.064 366.956 330.575 366.915Q330.086 366.874 329.599 366.809Q329.113 366.744 328.63 366.655Q328.147 366.566 327.669 366.453Q327.191 366.341 326.719 366.205Q326.248 366.069 325.783 365.91Q325.318 365.751 324.862 365.57Q324.406 365.389 323.959 365.185Q323.513 364.981 323.076 364.756Q322.64 364.531 322.216 364.284Q321.791 364.038 321.379 363.771Q320.967 363.504 320.568 363.217Q320.17 362.931 319.786 362.624Q319.402 362.318 319.034 361.994Q318.665 361.669 318.313 361.327Q317.961 360.985 317.626 360.626L303.985 345.997Q303.65 345.638 303.334 345.263Q303.017 344.888 302.719 344.498Q302.421 344.108 302.142 343.704Q301.864 343.299 301.605 342.882Q301.347 342.464 301.109 342.035Q300.872 341.605 300.656 341.164Q300.439 340.724 300.245 340.273Q300.051 339.822 299.879 339.362Q299.707 338.902 299.558 338.434Q299.409 337.967 299.283 337.492Q299.157 337.018 299.054 336.538Q298.951 336.057 298.873 335.573Q298.794 335.088 298.739 334.6Q298.684 334.113 298.652 333.623Q298.621 333.133 298.614 332.642Q298.608 332.151 298.625 331.66Q298.642 331.17 298.683 330.68Q298.724 330.191 298.789 329.704Q298.854 329.218 298.943 328.735Q299.032 328.252 299.145 327.774Q299.257 327.296 299.393 326.825Q299.529 326.353 299.688 325.888Q299.847 325.424 300.028 324.968Q300.21 324.511 300.413 324.065Q300.617 323.618 300.842 323.182Q301.067 322.746 301.314 322.321Q301.56 321.896 301.827 321.484Q302.094 321.072 302.381 320.674Q302.668 320.275 302.974 319.891Q303.28 319.508 303.604 319.139Q303.929 318.771 304.271 318.419Q304.613 318.067 304.972 317.732Z" id="Rectangle" fill="#C8D4E5" fill-rule="evenodd" stroke="none" filter="url(#filter_1)" />
    <g fill="#5E7CFF" stroke="none" id="Handy" filter="url(#filter_2)" transform="matrix(0.7313537 -0.6819984 0.6819984 0.7313537 272.6875 345.68362)">
      <path d="M73.376 44.6508L73.376 13.1628L67.712 13.1628L67.712 27.7068L51.056 27.7068L51.056 13.1628L45.392 13.1628L45.392 44.6508L40.736 44.6508L40.736 46.7148L51.056 46.7148L51.056 32.9868L67.712 32.9868L67.712 46.7148L84.08 46.7148L87.44 39.0828L104.24 39.0828L107.6 46.7148L123.968 46.7148L123.968 22.2348L142.976 46.7148L221.264 46.7148L221.264 44.6508L209.168 44.6508L209.168 33.4668L221.648 13.1628L215.456 13.1628L206.288 28.4268L197.12 13.1628L190.928 13.1628L203.408 33.4668L203.408 44.6508L180.224 44.6508Q188.672 40.6188 188.672 29.9148Q188.672 21.9468 183.824 17.5548Q178.976 13.1628 169.952 13.1628L158.432 13.1628L158.432 44.6508L149.12 44.6508L149.12 13.1628L143.456 13.1628L143.456 38.2188L123.968 13.1628L118.304 13.1628L118.304 44.6508L112.736 44.6508L98.864 13.1628L92.816 13.1628L78.944 44.6508L73.376 44.6508ZM182.96 29.9148Q182.96 18.3948 169.76 18.3948L164.096 18.3948L164.096 41.3868L170.384 41.3868Q176.48 41.3868 179.72 38.4828Q182.96 35.5788 182.96 29.9148ZM101.936 33.8508L95.84 20.0268L89.744 33.8508L101.936 33.8508Z" />
    </g>
  </g>
</svg>